<svg width="123" height="33" viewBox="0 0 123 33" fill="none" xmlns="http://www.w3.org/2000/svg">
<path d="M0.0356589 24.3371L1.41671 2.0759L7.38923 2.44643C8.90099 2.54022 10.2602 2.85431 11.4667 3.38871C12.6733 3.92311 13.6085 4.78267 14.2724 5.96739C14.937 7.14146 15.2069 8.73456 15.082 10.7467C14.9916 12.2052 14.6292 13.5667 13.995 14.8312C13.3615 16.0851 12.4235 17.0796 11.1809 17.8147C9.94899 18.5505 8.39083 18.8599 6.50646 18.743L4.52626 18.6202L4.15574 24.5927L0.0356589 24.3371ZM6.9336 5.65638L5.33667 5.5573L4.73431 15.2666L6.42706 15.3717C7.83236 15.4588 8.91242 15.1037 9.66725 14.3062C10.4221 13.5088 10.849 12.3116 10.9481 10.7147C11.0491 9.08579 10.8044 7.86295 10.2138 7.04615C9.62394 6.21871 8.53053 5.75545 6.9336 5.65638ZM17.2418 25.4046L18.7517 1.06734L22.5204 1.30115L22.0211 9.34967L21.7927 11.7401C22.2568 11.1491 22.8873 10.6324 23.6843 10.1903C24.4812 9.7481 25.5131 9.56631 26.78 9.64491C28.3769 9.74398 29.5376 10.329 30.262 11.3999C30.9864 12.4708 31.2925 13.9112 31.1802 15.721L30.5283 26.2288L26.4401 25.9752L27.0663 15.8826C27.1211 14.999 26.9524 14.2725 26.5603 13.7031C26.1794 13.1237 25.611 12.8106 24.8552 12.7637C24.1099 12.7175 23.4274 12.953 22.8075 13.4703C22.1882 13.9769 21.8512 14.672 21.7964 15.5557L21.1703 25.6483L17.2418 25.4046ZM37.9338 27.1371C36.9543 27.0763 36.1534 26.8076 35.5311 26.3308C34.9194 25.8547 34.4763 25.2447 34.2018 24.501C33.938 23.7579 33.8332 22.9498 33.8873 22.0768C33.9177 21.5871 34.0735 21.0571 34.3547 20.4867C34.6465 19.917 35.1283 19.3859 35.8001 18.8932C36.4719 18.4005 37.3986 18.0198 38.5802 17.7511C39.7617 17.4824 41.2628 17.4046 43.0833 17.5175L43.1289 16.7829C43.1777 15.9951 43.0267 15.3285 42.6758 14.783C42.3356 14.2382 41.5959 13.9305 40.4567 13.8599C39.6263 13.8083 38.803 13.9015 37.9867 14.1394C37.1817 14.3674 36.58 14.6774 36.1816 15.0695L35.0943 11.9241C35.7601 11.5272 36.6366 11.1808 37.7237 10.8849C38.8221 10.579 40.026 10.4667 41.3355 10.5479C42.9111 10.6457 44.1206 10.9612 44.9638 11.4944C45.8071 12.0276 46.377 12.747 46.6735 13.6524C46.9707 14.5472 47.0826 15.5854 47.0093 16.7672L46.3613 27.2111L42.9439 26.9991L42.7972 24.7136C41.5777 26.4548 39.9565 27.2626 37.9338 27.1371ZM39.8167 24.176C40.2958 24.2057 40.8187 24.0458 41.3854 23.6962C41.9635 23.3367 42.431 22.8634 42.788 22.2764L42.9287 20.0087C42.8236 19.9808 42.7071 19.9629 42.5794 19.955C42.4623 19.9477 42.3239 19.9391 42.1642 19.9292C41.5786 19.8929 40.9569 19.9238 40.2989 20.0219C39.6522 20.11 39.095 20.3052 38.6274 20.6075C38.1598 20.9098 37.9078 21.3537 37.8715 21.9393C37.8239 22.7058 37.9606 23.2593 38.2814 23.5999C38.6023 23.9404 39.1141 24.1324 39.8167 24.176ZM54.7508 28.0201C53.5904 27.9481 52.6442 27.7825 51.9122 27.5234C51.1914 27.2542 50.6321 26.9684 50.234 26.6658C49.8473 26.3533 49.5801 26.0962 49.4322 25.8947L50.8022 22.9339C51.2469 23.3462 51.8196 23.7611 52.5204 24.1786C53.2319 24.5968 54.072 24.836 55.0408 24.8961C55.7967 24.943 56.3333 24.8213 56.6505 24.531C56.9784 24.2415 57.1536 23.9157 57.1761 23.5537C57.2071 23.0533 56.8892 22.5794 56.2223 22.1319C55.5554 21.6844 54.7763 21.2353 53.8852 20.7846C53.3568 20.5167 52.8004 20.183 52.216 19.7833C51.6316 19.3837 51.1397 18.8723 50.7402 18.249C50.3513 17.6264 50.1859 16.8467 50.2441 15.9098C50.3332 14.4726 50.9259 13.3605 52.0221 12.5735C53.1295 11.7766 54.6467 11.4378 56.5737 11.5574C57.8087 11.634 58.8404 11.885 59.669 12.3105C60.5089 12.726 61.0637 13.0863 61.3333 13.3916L60.069 16.1987C59.6736 15.8536 59.1655 15.5175 58.5445 15.1904C57.9236 14.8633 57.2458 14.677 56.5112 14.6314C55.7021 14.5812 55.1313 14.6527 54.7987 14.8458C54.4661 15.0389 54.2853 15.3697 54.2562 15.8381C54.2238 16.3598 54.4792 16.8084 55.0223 17.1841C55.5767 17.5498 56.2433 17.9171 57.0219 18.2861C58.3203 18.8903 59.3503 19.6008 60.1119 20.4175C60.8848 21.2242 61.2349 22.2131 61.1622 23.3842C61.108 24.2572 60.8549 25.0644 60.4028 25.8058C59.9514 26.5366 59.2636 27.1138 58.3396 27.5374C57.4163 27.9504 56.22 28.1113 54.7508 28.0201ZM70.6681 29.1358C68.8795 29.0249 67.4601 28.5628 66.4097 27.7495C65.3601 26.9256 64.6234 25.8806 64.1996 24.6146C63.7765 23.338 63.6105 21.9651 63.7017 20.4959C63.7974 18.9522 64.1674 17.5538 64.8116 16.3006C65.467 15.0374 66.3672 14.0513 67.5119 13.3421C68.6674 12.6336 70.0435 12.3289 71.6405 12.428C74.0252 12.5759 75.6484 13.3713 76.5101 14.8141C77.3724 16.2462 77.7253 18.2239 77.5687 20.747C77.5549 20.9706 77.532 21.2524 77.5003 21.5924C77.4685 21.9324 77.4343 22.2242 77.3979 22.4677L67.8163 21.8733C67.8022 23.1335 68.0924 24.1401 68.687 24.893C69.2921 25.6466 70.2388 26.0634 71.527 26.1433C72.1871 26.1842 72.904 26.0844 73.6777 25.8439C74.452 25.5927 75.0331 25.2707 75.4208 24.878L76.5101 27.9914C76.0665 28.2524 75.3703 28.5352 74.4216 28.8397C73.4842 29.1342 72.233 29.2329 70.6681 29.1358ZM67.9389 19.3801L73.5601 19.7289C73.6294 18.611 73.5811 17.753 73.4152 17.1549C73.2605 16.5469 73.0198 16.1205 72.693 15.8758C72.3662 15.6311 71.9845 15.4952 71.548 15.4681C70.4621 15.4007 69.6226 15.7548 69.0294 16.5302C68.437 17.295 68.0734 18.2449 67.9389 19.3801ZM93.7493 30.7281C91.8116 30.6079 90.2774 30.0157 89.1464 28.9517C88.0161 27.8769 87.2337 26.4498 86.799 24.6701C86.365 22.8798 86.2187 20.8455 86.3601 18.5672C86.6071 14.5855 87.498 11.6804 89.0328 9.85198C90.5783 8.02416 92.6339 7.18984 95.1997 7.34902C97.776 7.50885 99.7128 8.59085 101.01 10.595C102.307 12.5992 102.832 15.5921 102.585 19.5738C102.444 21.8521 102.047 23.8527 101.395 25.5756C100.744 27.2879 99.7908 28.6074 98.5364 29.5342C97.2826 30.4503 95.6869 30.8483 93.7493 30.7281ZM93.9932 27.3126C94.9088 27.3694 95.6499 27.052 96.2164 26.3605C96.7943 25.6589 97.2284 24.6919 97.5186 23.4595C97.8201 22.2171 98.019 20.8188 98.1155 19.2644C98.2172 17.6249 98.1896 16.1751 98.0326 14.915C97.887 13.6448 97.5698 12.6419 97.0811 11.9063C96.6037 11.1606 95.9178 10.76 95.0235 10.7046C94.1186 10.6484 93.3726 10.9601 92.7853 11.6398C92.2094 12.3094 91.7654 13.2651 91.4533 14.5068C91.1418 15.7379 90.9352 17.1731 90.8335 18.8127C90.737 20.367 90.7616 21.7792 90.9073 23.0494C91.0642 24.3095 91.386 25.3234 91.8728 26.091C92.3708 26.8486 93.0776 27.2558 93.9932 27.3126ZM103.938 26.3907L113.256 9.01427L119.995 9.43235L119.056 24.5712L121.739 24.7377L121.547 27.8357L118.864 27.6693L118.614 31.6935L114.43 31.434L114.68 27.4097L104.14 26.7558L103.938 26.3907ZM109.794 23.9966L115.064 24.3236L116.005 11.4772L111.86 20.1492L109.794 23.9966Z" fill="black"/>
</svg>
