<svg width="32" height="55" viewBox="0 0 32 55" fill="none" xmlns="http://www.w3.org/2000/svg">
<path d="M-1.12355e-05 54.2401V0.000110626H31.968V54.2401H-1.12355e-05ZM28.08 41.6161L28.896 35.6161L25.92 35.3281L25.008 39.9361C23.152 40.8641 20.864 41.3281 18.144 41.3281C14.432 41.3281 11.488 40.1601 9.31199 37.8241C7.16799 35.4561 6.09599 32.3361 6.09599 28.4641C6.09599 24.6881 7.13599 21.5841 9.21599 19.1521C11.328 16.7201 14.096 15.5041 17.52 15.5041C19.28 15.5041 20.752 15.7121 21.936 16.1281C23.12 16.5121 24.224 17.0401 25.248 17.7121L26.112 22.2721L29.136 21.9841L28.272 15.9841C26.992 14.8961 25.472 14.0161 23.712 13.3441C21.984 12.6721 19.824 12.3361 17.232 12.3361C14.192 12.3361 11.568 13.0881 9.35999 14.5921C7.15199 16.0961 5.43999 18.0961 4.22399 20.5921C3.00799 23.0561 2.39999 25.7281 2.39999 28.6081C2.39999 33.1521 3.80799 36.9441 6.62399 39.9841C9.43999 42.9921 13.12 44.4961 17.664 44.4961C22.112 44.4961 25.584 43.5361 28.08 41.6161Z" fill="white"/>
</svg>
