<svg width="120" height="29" viewBox="0 0 120 29" fill="none" xmlns="http://www.w3.org/2000/svg">
<path d="M0.770173 28.1383L0.0656962 5.84546L6.04671 5.65645C7.56062 5.60861 8.94318 5.79437 10.1944 6.21372C11.4456 6.63308 12.457 7.40152 13.2287 8.51903C14.0001 9.62589 14.4176 11.1868 14.4812 13.2018C14.5274 14.6624 14.2938 16.0518 13.7805 17.37C13.2669 18.6776 12.4259 19.7553 11.2574 20.6033C10.0996 21.451 8.57718 21.9046 6.69012 21.9643L4.70711 22.0269L4.89611 28.0079L0.770173 28.1383ZM5.89292 8.89492L4.29372 8.94546L4.60098 18.6686L6.29613 18.615C7.70343 18.5706 8.7456 18.1161 9.42263 17.2516C10.0997 16.3871 10.4129 15.1553 10.3624 13.5561C10.3108 11.9249 9.95292 10.7303 9.28864 9.97221C8.62403 9.20348 7.49212 8.84439 5.89292 8.89492ZM18.0008 27.5938L17.2306 3.22199L21.0048 3.10272L21.2595 11.1627L21.2553 13.564C21.6622 12.9322 22.2417 12.3589 22.9939 11.8443C23.746 11.3296 24.7564 11.0522 26.0251 11.0121C27.6243 10.9616 28.8345 11.4356 29.6558 12.4341C30.4771 13.4327 30.9164 14.8382 30.9737 16.6506L31.3062 27.1734L27.2122 27.3027L26.8928 17.1958C26.8649 16.3109 26.6291 15.6033 26.1854 15.0731C25.7521 14.5318 25.157 14.2731 24.4 14.2971C23.6537 14.3207 22.9962 14.6189 22.4273 15.1918C21.8581 15.7541 21.5875 16.4777 21.6155 17.3625L21.9349 27.4695L18.0008 27.5938ZM38.7641 27.3859C37.7833 27.4169 36.9608 27.2241 36.2966 26.8076C35.6431 26.3907 35.145 25.8248 34.8022 25.1099C34.4702 24.3947 34.2903 23.6 34.2627 22.7258C34.2472 22.2353 34.3528 21.6931 34.5795 21.0989C34.8168 20.5045 35.2469 19.9306 35.8697 19.3773C36.4926 18.824 37.3796 18.3585 38.5309 17.9806C39.6822 17.6027 41.1694 17.3849 42.9925 17.3273L42.9693 16.5917C42.9443 15.8028 42.7317 15.1532 42.3314 14.6429C41.9417 14.1323 41.1765 13.895 40.0358 13.931C39.2042 13.9573 38.3931 14.127 37.6026 14.4401C36.8225 14.7423 36.2524 15.1071 35.8924 15.5347L34.516 12.5047C35.1418 12.0473 35.9821 11.6206 37.0368 11.2244C38.1018 10.8172 39.29 10.5929 40.6013 10.5515C42.1792 10.5016 43.4128 10.7028 44.3022 11.1549C45.1916 11.607 45.8262 12.27 46.206 13.1437C46.5854 14.0069 46.7939 15.0301 46.8313 16.2135L47.1618 26.6723L43.7395 26.7805L43.3799 24.5187C42.3283 26.3662 40.7898 27.3219 38.7641 27.3859ZM40.3622 24.2619C40.842 24.2467 41.3477 24.0386 41.8793 23.6376C42.4212 23.2257 42.8425 22.7108 43.1431 22.093L43.0714 19.8221C42.9641 19.8041 42.8465 19.7972 42.7185 19.8012C42.6012 19.8049 42.4627 19.8093 42.3027 19.8144C41.7164 19.8329 41.1002 19.9217 40.4542 20.0809C39.8186 20.229 39.2821 20.4754 38.8448 20.8201C38.4074 21.1647 38.198 21.6302 38.2166 22.2166C38.2408 22.9842 38.4286 23.5226 38.7799 23.8316C39.1311 24.1407 39.6586 24.2841 40.3622 24.2619ZM55.5902 26.6941C54.4281 26.7308 53.4705 26.6544 52.7175 26.4647C51.9748 26.2641 51.3911 26.0317 50.9666 25.7677C50.5524 25.4926 50.2623 25.2617 50.0963 25.0748L51.1837 21.9989C51.6649 22.3679 52.2739 22.7275 53.0106 23.0778C53.7581 23.4277 54.6169 23.5873 55.5871 23.5566C56.344 23.5327 56.8669 23.3615 57.1556 23.0428C57.455 22.7239 57.599 22.3832 57.5875 22.0207C57.5717 21.5196 57.2109 21.0774 56.5051 20.6942C55.7993 20.311 54.9818 19.9366 54.0524 19.5711C53.5013 19.3538 52.9161 19.0734 52.297 18.7302C51.6778 18.3869 51.1403 17.9236 50.6843 17.3404C50.239 16.7568 50.0015 15.996 49.9718 15.0578C49.9263 13.6185 50.4125 12.4559 51.4304 11.5699C52.4586 10.673 53.9375 10.1941 55.8672 10.1331C57.1039 10.094 58.1546 10.2476 59.0193 10.5938C59.8944 10.929 60.4803 11.2359 60.7773 11.5147L59.7808 14.4276C59.3549 14.1209 58.8176 13.8338 58.1688 13.5661C57.52 13.2985 56.8278 13.1763 56.0922 13.1995C55.2819 13.2251 54.7202 13.3496 54.4071 13.5729C54.094 13.7963 53.9449 14.1425 53.9597 14.6116C53.9762 15.134 54.2724 15.5568 54.8482 15.8801C55.4344 16.1925 56.1323 16.4959 56.942 16.7905C58.2912 17.2708 59.383 17.8819 60.2176 18.6239C61.0624 19.3549 61.5034 20.3068 61.5404 21.4796C61.5681 22.3538 61.3914 23.1811 61.0106 23.9615C60.6293 24.7313 59.9985 25.3702 59.1181 25.8783C58.2374 26.3757 57.0614 26.6476 55.5902 26.6941ZM71.542 26.3181C69.7509 26.3747 68.2945 26.0472 67.1728 25.3356C66.0507 24.6133 65.2196 23.6418 64.6795 22.4209C64.139 21.1893 63.8455 19.8379 63.799 18.3667C63.7501 16.8208 63.9878 15.3939 64.5121 14.086C65.0467 12.7671 65.8508 11.7012 66.9243 10.8882C68.0085 10.0749 69.3502 9.64299 70.9494 9.59245C73.3376 9.51698 75.028 10.1572 76.0206 11.5132C77.0129 12.8586 77.549 14.7946 77.6289 17.3213C77.6359 17.5452 77.6395 17.8279 77.6397 18.1694C77.6398 18.5109 77.633 18.8046 77.6195 19.0505L68.0243 19.3537C68.128 20.6097 68.511 21.5848 69.1732 22.2789C69.8461 22.9726 70.8276 23.2991 72.1176 23.2584C72.7786 23.2375 73.4831 23.0711 74.2309 22.7594C74.9785 22.4369 75.5269 22.0621 75.8762 21.6348L77.2516 24.6329C76.8343 24.9342 76.1675 25.2808 75.2515 25.6726C74.3457 26.0534 73.1092 26.2686 71.542 26.3181ZM67.9134 16.86L73.5426 16.6821C73.5073 15.5626 73.379 14.7129 73.1579 14.133C72.9472 13.542 72.6677 13.1399 72.3194 12.9268C71.9712 12.7137 71.5785 12.6141 71.1414 12.6279C70.0539 12.6623 69.2511 13.0932 68.733 13.9206C68.2146 14.7374 67.9414 15.7172 67.9134 16.86ZM94.671 25.7473C92.7306 25.8086 91.1478 25.3623 89.9223 24.4086C88.6966 23.4441 87.7842 22.0963 87.1853 20.365C86.5859 18.6231 86.2502 16.6113 86.1781 14.3298C86.0521 10.3425 86.6678 7.36687 88.0251 5.40302C89.3931 3.43883 91.3618 2.41614 93.9311 2.33495C96.5112 2.25341 98.5405 3.14976 100.019 5.024C101.498 6.89823 102.3 9.82902 102.426 13.8164C102.498 16.0979 102.29 18.1268 101.802 19.9031C101.313 21.6688 100.488 23.0715 99.3257 24.1114C98.1629 25.1407 96.6114 25.6859 94.671 25.7473ZM94.5948 22.324C95.5117 22.295 96.2199 21.9098 96.7194 21.1683C97.2292 20.4158 97.571 19.4125 97.7448 18.1584C97.929 16.8933 97.9964 15.4824 97.9473 13.9259C97.8954 12.284 97.7324 10.8431 97.4585 9.60316C97.1948 8.3522 96.7854 7.38331 96.2301 6.69651C95.6851 5.99871 94.9648 5.66396 94.0693 5.69226C93.163 5.7209 92.4494 6.10096 91.9282 6.83245C91.4174 7.55295 91.0646 8.54592 90.8698 9.81137C90.6746 11.0662 90.603 12.5145 90.6549 14.1563C90.7041 15.7129 90.8605 17.1166 91.1241 18.3676C91.3981 19.6076 91.8133 20.5869 92.3696 21.3057C92.9362 22.0135 93.678 22.3529 94.5948 22.324ZM111.175 25.0656C110.205 25.0963 109.167 25.017 108.062 24.8278C106.968 24.649 106.018 24.3108 105.213 23.8133L106.283 20.1937C106.765 20.6054 107.406 20.948 108.204 21.2215C109.003 21.4951 109.775 21.6201 110.521 21.5966C111.033 21.5804 111.576 21.5259 112.149 21.4331C112.733 21.3292 113.276 21.136 113.779 20.8533C114.282 20.5599 114.685 20.131 114.987 19.5665C115.3 18.991 115.441 18.2288 115.411 17.2799C115.371 16.0112 114.918 15.0171 114.053 14.2974C113.186 13.567 111.975 13.2265 110.418 13.2757C109.821 13.2945 109.216 13.3724 108.601 13.5092C107.997 13.635 107.452 13.7856 106.966 13.961C106.481 14.1364 106.129 14.297 105.909 14.4427L105.948 2.49948L118.294 2.10934L118.401 5.49965L109.701 5.77456L109.532 10.5503C110.028 10.3852 110.516 10.2684 110.994 10.1999C111.482 10.1311 112.015 10.0876 112.59 10.0695C114.85 9.99803 116.587 10.5675 117.799 11.7778C119.011 12.9774 119.65 14.6274 119.716 16.7277C119.769 18.3909 119.441 19.8366 118.733 21.0649C118.035 22.2929 117.036 23.253 115.734 23.9451C114.433 24.6372 112.913 25.0107 111.175 25.0656Z" fill="black"/>
</svg>
