<svg width="119" height="113" viewBox="0 0 119 113" fill="none" xmlns="http://www.w3.org/2000/svg">
<path d="M19.5703 37.2188C13.3984 37.2188 8.59375 35.5938 5.15625 32.3438C1.71875 29.0781 0 24.3359 0 18.1172C0 14.1172 0.804688 10.7812 2.41406 8.10938C4.02344 5.42188 6.28906 3.39844 9.21094 2.03906C12.1484 0.679688 15.6016 0 19.5703 0C23.5703 0 27.0312 0.671875 29.9531 2.01562C32.8906 3.35938 35.1562 5.375 36.75 8.0625C38.3594 10.75 39.1641 14.1016 39.1641 18.1172C39.1641 24.3359 37.4297 29.0781 33.9609 32.3438C30.5078 35.5938 25.7109 37.2188 19.5703 37.2188ZM19.5703 25.6406C20.8828 25.6406 21.8672 25.2891 22.5234 24.5859C23.1797 23.8672 23.6172 22.9375 23.8359 21.7969C24.0547 20.6406 24.1641 19.4141 24.1641 18.1172C24.1641 16.8203 24.0547 15.6094 23.8359 14.4844C23.6172 13.3594 23.1797 12.4531 22.5234 11.7656C21.8672 11.0625 20.8828 10.7109 19.5703 10.7109C18.2734 10.7109 17.2969 11.0625 16.6406 11.7656C15.9844 12.4531 15.5469 13.3594 15.3281 14.4844C15.1094 15.6094 15 16.8203 15 18.1172C15 19.4141 15.1016 20.6406 15.3047 21.7969C15.5234 22.9375 15.9609 23.8672 16.6172 24.5859C17.2734 25.2891 18.2578 25.6406 19.5703 25.6406ZM42.0938 36.5391V24.4688C43.1562 24.0938 44.3516 23.6875 45.6797 23.25C47.0234 22.7969 48.375 22.2969 49.7344 21.75C51.0938 21.2031 52.3438 20.5781 53.4844 19.875C54.625 19.1719 55.5469 18.3672 56.25 17.4609C56.9531 16.5547 57.3047 15.5234 57.3047 14.3672C57.3047 13.1328 56.9531 12.1719 56.25 11.4844C55.5469 10.7969 54.5859 10.4531 53.3672 10.4531C52.3672 10.4531 51.5078 10.8047 50.7891 11.5078C50.0859 12.2109 49.5391 12.9531 49.1484 13.7344H42.0938V2.95312C43.8438 2.03125 45.7891 1.3125 47.9297 0.796875C50.0703 0.265625 52.5156 0 55.2656 0C57.5625 0 59.7344 0.234375 61.7812 0.703125C63.8438 1.15625 65.6641 1.875 67.2422 2.85938C68.8203 3.84375 70.0547 5.13281 70.9453 6.72656C71.8516 8.32031 72.3047 10.2578 72.3047 12.5391C72.3047 14.4766 71.9219 16.2109 71.1562 17.7422C70.4062 19.2734 69.3828 20.6172 68.0859 21.7734C66.8047 22.9141 65.3594 23.875 63.75 24.6562C62.1406 25.4375 60.4844 26.0469 58.7812 26.4844H72.0938V36.5391H42.0938ZM0.459375 74.5391C0.209375 74.5391 0.0843751 74.4141 0.0843751 74.1641V71.3441C0.0843751 71.2141 0.0893751 71.1091 0.0993751 71.0291C0.119375 70.9491 0.179375 70.8841 0.279375 70.8341L4.20938 69.0341V66.3641L0.339375 63.9641C0.169375 63.8641 0.0843751 63.7141 0.0843751 63.5141V58.0091C0.0843751 57.8491 0.0943751 57.7341 0.114375 57.6641C0.134375 57.5841 0.209375 57.4991 0.339375 57.4091L4.28438 54.7391C4.38438 54.6791 4.47438 54.6341 4.55438 54.6041C4.64438 54.5641 4.75438 54.5441 4.88438 54.5441H8.93438C9.18438 54.5441 9.30938 54.6691 9.30938 54.9191V57.4691C9.30938 57.6891 9.23438 57.8391 9.08438 57.9191L5.15438 59.5391V62.3141L9.08438 64.5641C9.23438 64.6341 9.30938 64.7941 9.30938 65.0441V71.5691C9.30938 71.6491 9.29438 71.7341 9.26438 71.8241C9.24438 71.9141 9.19438 71.9791 9.11438 72.0191L4.40438 74.3591C4.34438 74.3891 4.26938 74.4291 4.17938 74.4791C4.09938 74.5191 4.01938 74.5391 3.93938 74.5391H0.459375ZM12.8332 74.5391C12.5832 74.5391 12.4582 74.4141 12.4582 74.1641V58.4141C12.4582 58.1641 12.5832 58.0391 12.8332 58.0391H19.6582C19.8882 58.0391 20.0882 58.1241 20.2582 58.2941L22.1032 60.1391H22.6582L24.5032 58.2941C24.6732 58.1241 24.8732 58.0391 25.1032 58.0391H28.3582C28.5882 58.0391 28.7882 58.1241 28.9582 58.2941L31.9582 61.2941C32.1282 61.4541 32.2132 61.6541 32.2132 61.8941V74.1641C32.2132 74.4141 32.0882 74.5391 31.8382 74.5391H27.8332C27.5832 74.5391 27.4582 74.4141 27.4582 74.1641V62.4191C27.4582 61.9991 27.2482 61.7891 26.8282 61.7891H24.7132V74.1641C24.7132 74.4141 24.5882 74.5391 24.3382 74.5391H20.3332C20.0832 74.5391 19.9582 74.4141 19.9582 74.1641V62.4191C19.9582 61.9991 19.7482 61.7891 19.3282 61.7891H17.2132V74.1641C17.2132 74.4141 17.0882 74.5391 16.8382 74.5391H12.8332ZM39.4699 74.5391C39.2399 74.5391 39.0399 74.4541 38.8699 74.2841L35.8699 71.2841C35.6999 71.1241 35.6149 70.9241 35.6149 70.6841V61.8941C35.6149 61.6541 35.6999 61.4541 35.8699 61.2941L38.8699 58.2941C39.0399 58.1241 39.2399 58.0391 39.4699 58.0391H47.4949C47.7449 58.0391 47.8699 58.1641 47.8699 58.4141V74.1641C47.8699 74.4141 47.7449 74.5391 47.4949 74.5391H44.3749C44.2449 74.5391 44.1449 74.5141 44.0749 74.4641C44.0149 74.4141 43.9449 74.3541 43.8649 74.2841L43.1149 73.5341L42.3649 74.2841C42.2049 74.4541 42.0049 74.5391 41.7649 74.5391H39.4699ZM41.2249 71.0441H42.2749C42.5949 71.0441 42.8149 70.9791 42.9349 70.8491C43.0549 70.7191 43.1149 70.4891 43.1149 70.1591V61.5341H41.2249C40.8949 61.5341 40.6699 61.5991 40.5499 61.7291C40.4299 61.8591 40.3699 62.0891 40.3699 62.4191V70.1591C40.3699 70.4891 40.4299 70.7191 40.5499 70.8491C40.6699 70.9791 40.8949 71.0441 41.2249 71.0441ZM51.7395 74.5391C51.4895 74.5391 51.3645 74.4141 51.3645 74.1641V58.4141C51.3645 58.1641 51.4895 58.0391 51.7395 58.0391H54.0195C54.2095 58.0391 54.3745 58.1241 54.5145 58.2941L55.9845 59.9891L57.6195 58.2191C57.7295 58.0991 57.8695 58.0391 58.0395 58.0391H59.6595C59.9095 58.0391 60.0345 58.1641 60.0345 58.4141V61.6391C60.0345 61.7991 60.0245 61.9091 60.0045 61.9691C59.9845 62.0191 59.9295 62.0741 59.8395 62.1341L56.1195 64.8791V74.1641C56.1195 74.4141 55.9945 74.5391 55.7445 74.5391H51.7395ZM65.2734 74.5391C65.0434 74.5391 64.8434 74.4541 64.6734 74.2841L62.1684 71.7941C62.0084 71.6241 61.9284 71.4241 61.9284 71.1941V61.5341H61.2984C61.0484 61.5341 60.9234 61.4091 60.9234 61.1591V58.4141C60.9234 58.1641 61.0484 58.0391 61.2984 58.0391H61.9284V56.1641C61.9284 55.9141 62.0534 55.7891 62.3034 55.7891H66.2934C66.5434 55.7891 66.6684 55.9141 66.6684 56.1641V58.0391H68.1234C68.3734 58.0391 68.4984 58.1641 68.4984 58.4141V61.1591C68.4984 61.4091 68.3734 61.5341 68.1234 61.5341H66.6684V69.5441C66.6684 69.7341 66.7284 69.8891 66.8484 70.0091L68.3184 71.4941C68.4184 71.5841 68.4684 71.7341 68.4684 71.9441V74.1641C68.4684 74.4141 68.3434 74.5391 68.0934 74.5391H65.2734ZM0.909375 112.539C0.659375 112.539 0.534375 112.414 0.534375 112.164V92.9191C0.534375 92.6691 0.659375 92.5441 0.909375 92.5441H11.3644C11.6144 92.5441 11.7394 92.6691 11.7394 92.9191V96.1591C11.7394 96.4091 11.6144 96.5341 11.3644 96.5341H5.52938V100.794H10.8544C11.1044 100.794 11.2294 100.919 11.2294 101.169V103.914C11.2294 104.164 11.1044 104.289 10.8544 104.289H5.52938V108.534H11.3644C11.6144 108.534 11.7394 108.659 11.7394 108.909V112.164C11.7394 112.414 11.6144 112.539 11.3644 112.539H0.909375ZM19.0793 112.539C18.8493 112.539 18.6493 112.454 18.4793 112.284L15.4793 109.284C15.3093 109.124 15.2243 108.924 15.2243 108.684V99.8941C15.2243 99.6541 15.3093 99.4541 15.4793 99.2941L18.4793 96.2941C18.6493 96.1241 18.8493 96.0391 19.0793 96.0391H21.3743C21.6143 96.0391 21.8143 96.1241 21.9743 96.2941L22.7243 97.0441V92.9191C22.7243 92.6691 22.8493 92.5441 23.0993 92.5441H27.1043C27.3543 92.5441 27.4793 92.6691 27.4793 92.9191V112.164C27.4793 112.414 27.3543 112.539 27.1043 112.539H23.9843C23.8543 112.539 23.7543 112.514 23.6843 112.464C23.6243 112.414 23.5543 112.354 23.4743 112.284L22.7243 111.534L21.9743 112.284C21.8143 112.454 21.6143 112.539 21.3743 112.539H19.0793ZM20.8343 109.044H21.8843C22.2043 109.044 22.4243 108.979 22.5443 108.849C22.6643 108.719 22.7243 108.489 22.7243 108.159V99.5341H20.8343C20.5043 99.5341 20.2793 99.5991 20.1593 99.7291C20.0393 99.8591 19.9793 100.089 19.9793 100.419V108.159C19.9793 108.489 20.0393 108.719 20.1593 108.849C20.2793 108.979 20.5043 109.044 20.8343 109.044ZM34.8288 112.539C34.5888 112.539 34.3888 112.454 34.2288 112.284L31.2288 109.284C31.0588 109.124 30.9738 108.924 30.9738 108.684V96.4141C30.9738 96.1641 31.0988 96.0391 31.3488 96.0391H35.3538C35.6038 96.0391 35.7288 96.1641 35.7288 96.4141V108.084C35.7288 108.554 35.9588 108.789 36.4188 108.789H38.4738V96.4141C38.4738 96.1641 38.5988 96.0391 38.8488 96.0391H42.8538C43.1038 96.0391 43.2288 96.1641 43.2288 96.4141V112.164C43.2288 112.414 43.1038 112.539 42.8538 112.539H34.8288ZM51.6105 112.539C51.4105 112.539 51.2105 112.474 51.0105 112.344L48.5655 110.694L46.8855 107.994C46.8155 107.864 46.7555 107.779 46.7055 107.739C46.6555 107.689 46.6305 107.589 46.6305 107.439V101.139C46.6305 100.989 46.6505 100.889 46.6905 100.839C46.7305 100.789 46.7955 100.699 46.8855 100.569L48.4155 98.0191L51.0105 96.2341C51.1005 96.1741 51.1905 96.1291 51.2805 96.0991C51.3705 96.0591 51.4805 96.0391 51.6105 96.0391H54.2055C54.4555 96.0391 54.5805 96.1641 54.5805 96.4141V99.2191C54.5805 99.2991 54.5705 99.3841 54.5505 99.4741C54.5405 99.5641 54.4955 99.6341 54.4155 99.6841L52.7055 100.539L51.3855 102.264V106.269L52.7805 107.859L54.4155 108.894C54.5155 108.954 54.5655 109.029 54.5655 109.119C54.5755 109.199 54.5805 109.279 54.5805 109.359V112.164C54.5805 112.414 54.4555 112.539 54.2055 112.539H51.6105ZM61.3254 112.539C61.0954 112.539 60.8954 112.454 60.7254 112.284L57.7254 109.284C57.5554 109.124 57.4704 108.924 57.4704 108.684V99.8941C57.4704 99.6541 57.5554 99.4541 57.7254 99.2941L60.7254 96.2941C60.8954 96.1241 61.0954 96.0391 61.3254 96.0391H69.3504C69.6004 96.0391 69.7254 96.1641 69.7254 96.4141V112.164C69.7254 112.414 69.6004 112.539 69.3504 112.539H66.2304C66.1004 112.539 66.0004 112.514 65.9304 112.464C65.8704 112.414 65.8004 112.354 65.7204 112.284L64.9704 111.534L64.2204 112.284C64.0604 112.454 63.8604 112.539 63.6204 112.539H61.3254ZM63.0804 109.044H64.1304C64.4504 109.044 64.6704 108.979 64.7904 108.849C64.9104 108.719 64.9704 108.489 64.9704 108.159V99.5341H63.0804C62.7504 99.5341 62.5254 99.5991 62.4054 99.7291C62.2854 99.8591 62.2254 100.089 62.2254 100.419V108.159C62.2254 108.489 62.2854 108.719 62.4054 108.849C62.5254 108.979 62.7504 109.044 63.0804 109.044ZM76.6699 112.539C76.4399 112.539 76.2399 112.454 76.0699 112.284L73.5649 109.794C73.4049 109.624 73.3249 109.424 73.3249 109.194V99.5341H72.6949C72.4449 99.5341 72.3199 99.4091 72.3199 99.1591V96.4141C72.3199 96.1641 72.4449 96.0391 72.6949 96.0391H73.3249V94.1641C73.3249 93.9141 73.4499 93.7891 73.6999 93.7891H77.6899C77.9399 93.7891 78.0649 93.9141 78.0649 94.1641V96.0391H79.5199C79.7699 96.0391 79.8949 96.1641 79.8949 96.4141V99.1591C79.8949 99.4091 79.7699 99.5341 79.5199 99.5341H78.0649V107.544C78.0649 107.734 78.1249 107.889 78.2449 108.009L79.7149 109.494C79.8149 109.584 79.8649 109.734 79.8649 109.944V112.164C79.8649 112.414 79.7399 112.539 79.4899 112.539H76.6699ZM82.9699 112.539C82.7199 112.539 82.5949 112.414 82.5949 112.164V96.4141C82.5949 96.1641 82.7199 96.0391 82.9699 96.0391H86.9599C87.2099 96.0391 87.3349 96.1641 87.3349 96.4141V112.164C87.3349 112.414 87.2099 112.539 86.9599 112.539H82.9699ZM82.8949 94.7941C82.6949 94.7941 82.5949 94.6941 82.5949 94.4941V92.5891C82.5949 92.3891 82.6949 92.2891 82.8949 92.2891H87.0649C87.2449 92.2891 87.3349 92.3891 87.3349 92.5891V94.4941C87.3349 94.6941 87.2449 94.7941 87.0649 94.7941H82.8949ZM94.5773 112.539C94.3473 112.539 94.1473 112.454 93.9773 112.284L90.9773 109.284C90.8073 109.124 90.7223 108.924 90.7223 108.684V99.8941C90.7223 99.6541 90.8073 99.4541 90.9773 99.2941L93.9773 96.2941C94.1473 96.1241 94.3473 96.0391 94.5773 96.0391H99.1223C99.3623 96.0391 99.5623 96.1241 99.7223 96.2941L102.722 99.2941C102.892 99.4541 102.977 99.6541 102.977 99.8941V108.684C102.977 108.924 102.892 109.124 102.722 109.284L99.7223 112.284C99.5623 112.454 99.3623 112.539 99.1223 112.539H94.5773ZM96.3323 109.044H97.3823C97.7023 109.044 97.9223 108.979 98.0423 108.849C98.1623 108.719 98.2223 108.489 98.2223 108.159V100.419C98.2223 100.089 98.1623 99.8591 98.0423 99.7291C97.9223 99.5991 97.7023 99.5341 97.3823 99.5341H96.3323C96.0023 99.5341 95.7773 99.5991 95.6573 99.7291C95.5373 99.8591 95.4773 100.089 95.4773 100.419V108.159C95.4773 108.489 95.5373 108.719 95.6573 108.849C95.7773 108.979 96.0023 109.044 96.3323 109.044ZM106.847 112.539C106.597 112.539 106.472 112.414 106.472 112.164V96.4141C106.472 96.1641 106.597 96.0391 106.847 96.0391H114.872C115.102 96.0391 115.302 96.1241 115.472 96.2941L118.472 99.2941C118.642 99.4541 118.727 99.6541 118.727 99.8941V112.164C118.727 112.414 118.602 112.539 118.352 112.539H114.347C114.097 112.539 113.972 112.414 113.972 112.164V100.494C113.972 100.024 113.737 99.7891 113.267 99.7891H111.227V112.164C111.227 112.414 111.102 112.539 110.852 112.539H106.847Z" fill="white"/>
</svg>
