<svg width="119" height="19" viewBox="0 0 119 19" fill="none" xmlns="http://www.w3.org/2000/svg">
<path d="M1 3.82554C1.24335 3.82554 1.48671 3.82554 7.69592 3.09548C13.9051 2.36541 26.0728 0.90529 38.2728 1.00484C50.4727 1.1044 62.3362 2.80787 70.2121 4.20255C78.0879 5.59723 81.6165 6.63149 84.2252 7.59016C90.4706 9.88528 90.9027 11.0745 91.394 11.6258C91.8712 12.1611 91.583 13.2223 91.2161 14.2953C90.8337 15.4136 89.5605 16.1131 88.1511 16.6652C84.8958 17.9405 82.1216 17.1012 81.4773 16.5509C80.6977 15.8851 80.8275 14.6456 81.1621 13.5136C81.7167 11.6372 83.4638 10.2836 84.9635 9.08898C86.8935 7.55167 90.2095 6.1079 93.7685 4.66529C95.307 4.04168 96.3542 3.77023 98.4992 3.43101C100.644 3.09179 103.869 2.72676 107.172 2.53871C110.476 2.35067 113.761 2.35067 117.146 2.35067" stroke="white" stroke-width="2" stroke-linecap="round"/>
</svg>
